HIERARCHY
ROOT root
{
	OFFSET 0.000000 0.000000 0.000000
	CHANNELS 6 Xposition Yposition Zposition Zrotation Yrotation Xrotation
	JOINT lhip
	{
		OFFSET 0.058581 -0.082280 -0.017664
		CHANNELS 3 Zrotation Yrotation Xrotation
		JOINT lknee
		{
			OFFSET 0.043451 -0.386469 0.008037
			CHANNELS 3 Zrotation Yrotation Xrotation
			JOINT lankle
			{
				OFFSET -0.014790 -0.426874 -0.037428
				CHANNELS 3 Zrotation Yrotation Xrotation
				JOINT ltoe
				{
					OFFSET 0.041054 -0.060286 0.122042
					CHANNELS 3 Zrotation Yrotation Xrotation
					End Site
					{
						OFFSET 0.000000 0.000000 0.000000
					}
				}
			}
		}
	}
	JOINT rhip
	{
		OFFSET -0.060310 -0.090513 -0.013543
		CHANNELS 3 Zrotation Yrotation Xrotation
		JOINT rknee
		{
			OFFSET -0.043257 -0.383688 -0.004843
			CHANNELS 3 Zrotation Yrotation Xrotation
			JOINT rankle
			{
				OFFSET 0.019056 -0.420046 -0.034562
				CHANNELS 3 Zrotation Yrotation Xrotation
				JOINT rtoe
				{
					OFFSET -0.034840 -0.062106 0.130323
					CHANNELS 3 Zrotation Yrotation Xrotation
					End Site
					{
						OFFSET 0.000000 0.000000 0.000000
					}
				}
			}
		}
	}
	JOINT lowerback
	{
		OFFSET 0.004439 0.124404 -0.038385
		CHANNELS 3 Zrotation Yrotation Xrotation
		JOINT upperback
		{
			OFFSET 0.004488 0.137956 0.026820
			CHANNELS 3 Zrotation Yrotation Xrotation
			JOINT chest
			{
				OFFSET -0.002265 0.056032 0.002855
				CHANNELS 3 Zrotation Yrotation Xrotation
				JOINT lowerneck
				{
					OFFSET -0.013390 0.211636 -0.033468
					CHANNELS 3 Zrotation Yrotation Xrotation
					JOINT upperneck
					{
						OFFSET 0.010113 0.088937 0.050410
						CHANNELS 3 Zrotation Yrotation Xrotation
						End Site
						{
							OFFSET 0.000000 0.000000 0.000000
						}
					}
				}
				JOINT lclavicle
				{
					OFFSET 0.071702 0.114000 -0.018898
					CHANNELS 3 Zrotation Yrotation Xrotation
					JOINT lshoulder
					{
						OFFSET 0.122921 0.045205 -0.019046
						CHANNELS 3 Zrotation Yrotation Xrotation
						JOINT lelbow
						{
							OFFSET 0.255332 -0.015649 -0.022946
							CHANNELS 3 Zrotation Yrotation Xrotation
							JOINT lwrist
							{
								OFFSET 0.265709 0.012698 -0.007375
								CHANNELS 3 Zrotation Yrotation Xrotation
								End Site
								{
									OFFSET 0.000000 0.000000 0.000000
								}
							}
						}
					}
				}
				JOINT rclavicle
				{
					OFFSET -0.082954 0.112472 -0.023707
					CHANNELS 3 Zrotation Yrotation Xrotation
					JOINT rshoulder
					{
						OFFSET -0.113228 0.046853 -0.008472
						CHANNELS 3 Zrotation Yrotation Xrotation
						JOINT relbow
						{
							OFFSET -0.260127 -0.014369 -0.031269
							CHANNELS 3 Zrotation Yrotation Xrotation
							JOINT rwrist
							{
								OFFSET -0.269108 0.006794 -0.006027
								CHANNELS 3 Zrotation Yrotation Xrotation
								End Site
								{
									OFFSET 0.000000 0.000000 0.000000
								}
							}
						}
					}
				}
			}
		}
	}
}
MOTION
Frames: 13
Frame Time: 0.033333
-0.166776 0.703546 0.907461 -87.021252 2.577823 84.782630 6.337765 -1.775885 -37.116773 -8.428986 1.142200 43.497399 5.307680 9.969164 -12.810150 0.000000 -0.000000 0.000000 0.332815 -3.225874 -34.614855 -0.681850 -6.861715 45.431998 -1.193406 -5.986639 -12.937099 0.000000 -0.000000 0.000000 1.050778 1.295952 40.747390 -3.421612 1.354703 -10.880343 1.566004 0.470328 12.356503 -1.393969 -4.925729 -4.514515 11.977030 -1.439125 -15.218585 -4.527005 20.272965 -7.930913 -34.667832 2.845316 -12.222470 41.209081 -56.993399 -40.888429 4.513826 -12.359346 -26.617501 4.106797 -8.713953 -1.848805 49.645566 -7.630115 1.604642 -9.470917 39.568334 -5.817098 -2.571513 6.397455 -12.966962 
-0.182544 0.708500 0.837234 -88.963619 3.458813 87.232034 11.567436 -1.801637 -51.320851 -9.325212 7.775346 62.493616 6.579963 12.370958 -18.514563 0.000000 -0.000000 0.000000 -0.104245 3.623755 -47.106675 -2.128653 -7.823933 62.199685 -4.964424 -12.920879 -20.685667 0.000000 -0.000000 0.000000 0.059986 0.880479 44.306520 -3.265679 3.300235 -13.268029 1.380858 0.559246 12.825543 -0.676677 -3.604791 -14.402134 11.023066 -2.165654 -13.879059 -10.744802 21.450398 -6.679963 -43.440580 6.317858 -14.043917 33.896928 -46.938282 -37.654674 4.656778 -9.110549 -28.495831 9.928444 -7.927946 -0.947094 57.837016 -7.424926 3.724034 -12.500289 29.284805 -6.095501 -1.893752 3.297614 -8.148016 
-0.196395 0.710078 0.796168 -89.468670 3.043276 87.086612 13.446784 -0.954513 -56.247144 -7.512354 11.630194 72.848656 5.250166 9.820276 -24.637368 0.000000 -0.000000 0.000000 -1.715632 6.417333 -52.770458 -5.363833 -8.613649 73.650848 -4.548476 -12.606803 -25.535023 0.000000 -0.000000 0.000000 -0.754610 1.387290 51.925101 -3.687108 3.055682 -13.461106 1.594481 0.011506 9.744263 -0.782693 -1.290586 -20.921515 11.006361 -2.158495 -15.816910 -16.415096 13.380855 -4.010804 -49.010105 8.044078 -13.665269 27.221359 -33.699607 -33.361121 3.259467 -7.960609 -21.546654 15.042619 -0.983568 0.716438 64.047544 -5.343546 4.862135 -14.012067 23.513259 -7.510372 -4.888484 0.767427 -1.672984 
-0.206438 0.710432 0.765140 -88.921633 2.774227 89.127094 13.215001 0.687954 -61.950201 -6.604894 12.069261 79.491166 6.136725 8.880774 -28.819159 0.000000 -0.000000 0.000000 -3.117373 5.895240 -57.709433 -5.860140 -8.520845 79.534205 -5.547759 -13.288409 -29.834076 0.000000 -0.000000 0.000000 -0.551451 1.600666 55.277856 -3.355360 1.591544 -15.096489 1.802782 -0.981460 9.179512 -0.864145 0.258470 -24.285328 10.709654 -1.607419 -17.494243 -20.512970 2.245891 -0.992955 -52.037638 5.454754 -10.945712 21.291480 -20.006023 -27.272592 4.487175 -8.610345 -15.272520 17.954545 6.946973 2.470562 64.305524 -1.505605 7.605103 -13.977085 27.005282 -1.849140 -4.289336 2.629316 1.345730 
-0.216033 0.707654 0.744955 -88.216932 2.210724 90.355019 14.353277 0.801749 -65.728485 -6.225478 14.679287 84.361674 5.771805 7.877904 -31.707713 0.000000 -0.000000 0.000000 -6.075892 3.973747 -60.763752 -6.046585 -10.236783 84.516770 -4.584424 -11.013595 -32.969586 0.000000 -0.000000 0.000000 -0.196262 1.237886 58.090330 -3.138865 0.299082 -14.776034 1.479521 -1.526888 7.235593 -0.029716 1.559012 -28.969178 10.200127 -2.921966 -16.591365 -24.277429 -6.354795 0.239973 -51.274132 -0.151987 -6.716994 20.906062 -16.194353 -25.897778 5.569199 -8.675044 -12.212765 19.722871 12.932687 2.251142 58.789806 5.338826 9.585323 -12.678916 29.899017 2.793415 -3.578294 3.322437 2.393679 
-0.222959 0.704963 0.731162 -88.877454 2.537637 91.628925 16.522301 1.752070 -68.302668 -6.126488 17.028914 87.433365 5.479972 7.402790 -33.209719 0.000000 -0.000000 0.000000 -8.031318 3.769135 -63.517646 -5.816523 -12.508131 87.792209 -3.685902 -9.826571 -34.132059 0.000000 -0.000000 0.000000 -0.081627 1.305973 59.823916 -3.179040 -0.020196 -14.940552 1.402718 -1.322789 6.047456 0.178650 3.322471 -34.071053 9.303726 -4.910659 -15.166309 -23.850852 -12.813176 -0.586273 -49.873389 -6.972345 -2.828439 21.832453 -19.724945 -23.476583 4.283464 -7.957797 -12.883955 19.347209 19.064405 1.767165 51.670290 15.049608 8.445759 -14.434543 26.473198 0.974244 -4.250383 2.640004 2.998912 
-0.230093 0.702773 0.723644 -90.059175 2.564281 91.701742 16.389737 2.250808 -68.714661 -5.572064 16.802261 89.624266 5.481136 8.337293 -35.114509 0.000000 -0.000000 0.000000 -7.484665 4.212438 -64.244009 -4.962675 -11.601211 89.355265 -3.207396 -10.691817 -35.266403 0.000000 -0.000000 0.000000 -0.392747 1.763039 60.548489 -3.361518 -0.031138 -15.097983 1.300704 -0.722469 6.084607 -0.193911 4.589498 -37.646414 8.595434 -6.843125 -14.587958 -21.541899 -19.581621 -2.890155 -43.899830 -14.332847 0.004916 20.739580 -21.439273 -19.208966 3.852553 -8.673203 -11.500684 17.608342 24.641263 0.755028 42.328391 23.475201 4.579746 -17.065441 22.450442 -4.261732 -5.309524 2.094750 1.955449 
-0.238213 0.701069 0.720407 -90.533055 1.703229 91.185635 15.143402 1.021178 -68.148641 -5.102623 16.164271 90.856782 5.002104 9.874324 -36.278831 0.000000 -0.000000 0.000000 -7.415099 5.015946 -63.686958 -4.363077 -9.890649 90.086506 -2.733558 -12.338909 -36.682496 0.000000 -0.000000 0.000000 -0.616633 2.399614 60.127423 -3.180224 -0.575803 -15.215461 1.013664 -0.988946 6.776262 -0.610909 6.313387 -40.034952 7.979594 -8.513604 -14.335961 -17.845637 -25.623321 -5.928741 -35.263574 -21.718034 0.431888 19.453643 -20.191585 -19.746281 4.089803 -9.511560 -8.964545 15.525948 27.844340 -1.478542 30.939963 29.052316 -0.104213 -19.081861 23.288926 -9.999326 -6.053419 1.473638 -1.652535 
-0.247033 0.700676 0.723604 -90.276313 1.197968 90.589796 14.403206 -0.009179 -66.748240 -5.721937 15.866049 90.697176 4.692166 11.045860 -36.558373 0.000000 -0.000000 0.000000 -6.894827 5.512929 -62.048812 -3.314244 -8.661564 89.586732 -2.091903 -14.708976 -37.253150 0.000000 -0.000000 0.000000 -1.331699 2.491494 57.989516 -2.312581 -1.460545 -13.620287 1.064724 -0.904467 6.917690 -1.154296 6.972844 -41.815198 8.125733 -9.604629 -14.605519 -13.260740 -30.363980 -8.906352 -23.843924 -26.424796 -2.730282 18.706961 -21.241775 -22.863147 5.282333 -10.435260 -7.748585 12.938001 30.443905 -3.588436 19.077192 31.526351 -6.013343 -22.279502 28.324264 -14.818180 -5.574617 2.232123 -3.564801 
-0.258510 0.702099 0.731734 -89.871533 1.251708 90.237245 13.968968 -0.125046 -64.588169 -6.883840 15.329115 89.469626 4.340699 11.591788 -36.959925 0.000000 -0.000000 0.000000 -5.831473 6.212180 -59.632364 -2.675136 -7.801854 88.087648 -1.544664 -16.583536 -37.470721 0.000000 -0.000000 0.000000 -1.738698 1.935146 57.281535 -1.630670 -2.298614 -15.609900 0.829325 -0.943427 7.335228 -1.380219 7.744021 -42.598948 7.742489 -9.804534 -14.048035 -7.613414 -31.601487 -12.752306 -13.491275 -29.127599 -6.617477 17.922738 -23.768356 -24.916189 5.374716 -11.743815 -7.227685 8.612212 30.914434 -6.862626 11.100756 33.022895 -9.307803 -25.845069 32.995521 -20.666120 -7.653336 3.253051 -5.745055 
-0.272251 0.703507 0.744871 -89.807376 0.943967 89.510468 13.051799 -0.060894 -60.896146 -8.325850 14.859952 87.046642 4.025736 12.560082 -37.398800 0.000000 -0.000000 0.000000 -4.848483 6.558944 -55.967813 -1.480787 -6.802050 85.577349 -0.957509 -18.254051 -37.703455 0.000000 -0.000000 0.000000 -2.395941 1.739884 54.595975 -1.243036 -3.156897 -14.881657 0.674163 -0.804281 7.411482 -1.768769 8.383454 -42.342478 7.963194 -9.375272 -15.160290 -1.898827 -32.593537 -16.045537 -2.479638 -29.003045 -10.738107 17.015460 -26.699608 -29.435015 5.730463 -12.379834 -7.665207 3.785322 31.111664 -9.891200 3.326101 31.777594 -12.086224 -28.880308 36.791622 -25.677271 -8.296637 2.973459 -7.661986 
-0.287285 0.704889 0.763821 -89.994125 0.805787 89.288456 11.829160 0.492483 -56.775276 -10.008725 13.582835 83.489972 3.976864 13.766209 -37.279831 0.000000 -0.000000 0.000000 -3.401227 6.397037 -51.928894 0.060208 -5.444799 81.740422 -0.484750 -20.018997 -37.678552 0.000000 -0.000000 0.000000 -2.817470 1.794786 51.351416 -0.942050 -3.659857 -15.035019 0.659245 -0.948517 7.475507 -2.264729 9.646893 -41.832540 7.946762 -8.246959 -15.084047 2.575047 -32.658675 -18.321950 7.691077 -26.585976 -14.264602 14.825783 -31.005419 -29.505607 5.259150 -13.991583 -6.914707 -0.293479 30.258710 -11.829676 -3.354069 29.081137 -14.196468 -30.386635 40.534893 -28.083309 -8.846782 3.398427 -9.910003 
-0.305272 0.705483 0.788791 -90.235802 0.710036 89.033644 10.473573 0.640820 -51.618802 -11.282357 11.815792 78.621176 4.080029 15.345331 -37.072851 0.000000 -0.000000 0.000000 -1.947540 5.769034 -46.816617 1.630642 -3.860095 76.669086 -0.039489 -21.291886 -37.296586 0.000000 -0.000000 0.000000 -3.172279 2.313162 46.491708 -0.447051 -4.041531 -13.865665 1.043986 -1.218594 7.868824 -1.794709 8.845437 -39.068006 7.602513 -7.015695 -16.639057 6.864699 -30.534066 -20.352748 13.474475 -23.841249 -15.975080 14.446423 -37.117865 -29.504480 4.686084 -14.822655 -6.477920 -4.617764 28.024888 -14.372245 -7.149865 26.227597 -14.948163 -32.109000 44.823423 -30.388291 -4.908448 3.688232 -11.539762 
